<svg xmlns="http://www.w3.org/2000/svg" viewBox="0 0 1200 1500" role="img" aria-labelledby="title desc">
  <title id="title">Baby Bear sleeping peacefully</title>
  <desc id="desc">A bedtime illustration placeholder showing baby bear tucked into bed under the stars.</desc>
  <defs>
    <linearGradient id="sky" x1="0" x2="0" y1="0" y2="1">
      <stop offset="0%" stop-color="#2b2752" />
      <stop offset="100%" stop-color="#151226" />
    </linearGradient>
  </defs>
  <rect width="1200" height="1500" fill="url(#sky)" />
  <rect x="160" y="840" width="880" height="400" rx="60" fill="#f4e6cf" />
  <rect x="220" y="930" width="760" height="240" rx="48" fill="#76a9e0" />
  <circle cx="920" cy="230" r="88" fill="#f4d792" opacity="0.92" />
  <ellipse cx="600" cy="825" rx="205" ry="150" fill="#b77a51" />
  <ellipse cx="600" cy="820" rx="135" ry="115" fill="#f0d7b9" />
  <path d="M548 810c14 18 34 28 52 28s37-10 51-28" fill="none" stroke="#2e241f" stroke-width="10" stroke-linecap="round" />
  <path d="M518 786c12-15 25-22 38-22 15 0 28 7 39 22" fill="none" stroke="#2e241f" stroke-width="9" stroke-linecap="round" />
  <path d="M604 786c12-15 25-22 38-22 15 0 28 7 39 22" fill="none" stroke="#2e241f" stroke-width="9" stroke-linecap="round" />
  <circle cx="255" cy="220" r="8" fill="#fff4cf" />
  <circle cx="330" cy="280" r="6" fill="#fff4cf" />
  <circle cx="420" cy="170" r="7" fill="#fff4cf" />
  <circle cx="560" cy="230" r="8" fill="#fff4cf" />
  <circle cx="675" cy="160" r="7" fill="#fff4cf" />
  <circle cx="780" cy="270" r="8" fill="#fff4cf" />
  <text x="600" y="1330" font-family="Avenir Next Rounded, Nunito, sans-serif" font-size="54" text-anchor="middle" fill="#fff4cf">Baby Bear drifted into a cozy dream.</text>
</svg>
