<svg xmlns="http://www.w3.org/2000/svg" viewBox="0 0 1200 1500" role="img" aria-labelledby="title desc">
  <title id="title">Baby Bear under moonlight</title>
  <desc id="desc">A bedtime illustration placeholder showing baby bear with a blue blanket.</desc>
  <defs>
    <linearGradient id="sky" x1="0" x2="0" y1="0" y2="1">
      <stop offset="0%" stop-color="#2f2959" />
      <stop offset="100%" stop-color="#18152e" />
    </linearGradient>
  </defs>
  <rect width="1200" height="1500" fill="url(#sky)" />
  <circle cx="930" cy="250" r="90" fill="#f4d792" opacity="0.9" />
  <rect x="180" y="1040" width="840" height="260" rx="60" fill="#f4e6cf" />
  <ellipse cx="600" cy="900" rx="270" ry="280" fill="#a96f49" />
  <ellipse cx="600" cy="820" rx="190" ry="190" fill="#b77a51" />
  <ellipse cx="510" cy="650" rx="55" ry="80" fill="#b77a51" />
  <ellipse cx="690" cy="650" rx="55" ry="80" fill="#b77a51" />
  <ellipse cx="600" cy="860" rx="120" ry="110" fill="#f0d7b9" />
  <circle cx="555" cy="815" r="16" fill="#2e241f" />
  <circle cx="645" cy="815" r="16" fill="#2e241f" />
  <ellipse cx="600" cy="865" rx="24" ry="18" fill="#2e241f" />
  <path d="M460 980c70 120 210 160 280 145 75-16 138-85 182-145v220H278V980c61 41 129 64 182 0z" fill="#76a9e0" />
  <text x="600" y="1280" font-family="Avenir Next Rounded, Nunito, sans-serif" font-size="56" text-anchor="middle" fill="#2f2959">Baby Bear’s Blanket</text>
</svg>
